<svg xmlns="http://www.w3.org/2000/svg" width="200" height="27" viewBox="0 0 200 27"><defs><linearGradient id="a" x1=".005%" x2="100.005%" y1="50.026%" y2="50.026%"><stop offset="14%" stop-color="#B2B2B2"/><stop offset="86%" stop-color="#ECECEC"/></linearGradient><linearGradient id="b" x1="-.003%" x2="100.003%" y1="50.02%" y2="50.02%"><stop offset="14%" stop-color="#F5F5F5"/><stop offset="85%" stop-color="#C7C7C6"/></linearGradient><linearGradient id="c" x1="-.022%" x2="100.007%" y1="49.994%" y2="49.994%"><stop offset="14%" stop-color="#009C96"/><stop offset="85%" stop-color="#62C0BE"/></linearGradient><linearGradient id="d" x1="-.006%" x2="99.993%" y1="50.007%" y2="50.007%"><stop offset="15%" stop-color="#62C0BE"/><stop offset="86%" stop-color="#009C96"/></linearGradient><linearGradient id="e" x1="10609%" x2="19538%" y1="5097%" y2="5097%"><stop offset="14%" stop-color="#B2B2B2"/><stop offset="86%" stop-color="#ECECEC"/></linearGradient><linearGradient id="f" x1="10607%" x2="19539%" y1="4886%" y2="4886%"><stop offset="14%" stop-color="#F5F5F5"/><stop offset="85%" stop-color="#C7C7C6"/></linearGradient></defs><g fill="none"><path fill="#FFF" d="M72.281 12.537h-6.592V5.613h-3.697v16.573h3.697v-6.519h6.592v6.519h3.7V5.613h-3.7zm23.733-3.519a9.516 9.516 0 0 0-5.744 1.825l1.59 2.3a6.351 6.351 0 0 1 1.743-.914 6.24 6.24 0 0 1 1.956-.367c2.609-.065 3.003 2.11 3.003 2.11h-3.205c-1.645 0-2.942.325-3.89.973-.947.65-1.421 1.625-1.421 2.927 0 1.303.849 4.503 4.778 4.503 3.625 0 5.917-2.067 6.798-4.373 1.846-4.835-1.949-8.984-5.608-8.984zm-.42 10.244a2.465 2.465 0 0 1-1.459-.357 1.222 1.222 0 0 1-.51-1.054c0-.885.711-1.327 2.134-1.327h3.006s-.695 2.738-3.17 2.738zm-7.659-2.814c.948-.648 1.422-1.624 1.422-2.927s-.849-4.503-4.779-4.503c-3.624 0-5.916 2.068-6.797 4.373-1.849 4.836 1.946 8.987 5.608 8.987a9.516 9.516 0 0 0 5.738-1.824l-1.59-2.3a6.351 6.351 0 0 1-1.742.913 6.24 6.24 0 0 1-1.957.368c-2.608.065-3.003-2.111-3.003-2.111h3.22c1.637-.002 2.93-.327 3.88-.976zm-7.297-1.565s.694-2.751 3.17-2.751a2.465 2.465 0 0 1 1.457.368c.338.241.53.638.51 1.054 0 .884-.711 1.327-2.134 1.327l-3.003.002zm22.784-10.289h3.557v17.595h-3.557zm11.229 14.676a1.18 1.18 0 0 1-.9-.414 1.64 1.64 0 0 1-.378-1.151V11.99h3.081V9.43h-3.081V5.613h-3.584v3.816h-1.494v2.56h1.494v5.88c0 1.392.423 2.49 1.268 3.295a4.324 4.324 0 0 0 3.105 1.208c1.225 0 2.391-.505 3.497-1.516l-1.327-2.492a2.054 2.054 0 0 1-1.68.906zm14.879-8.63a4.516 4.516 0 0 0-3.379-1.422c-1.337 0-2.542.545-3.616 1.636V4.58h-3.557v17.594h3.557V15.31c0-.996.265-1.751.795-2.265a2.59 2.59 0 0 1 1.862-.77c1.441 0 2.162.98 2.162 2.94v6.971h3.557v-7.754c-.004-1.58-.464-2.844-1.381-3.792zm46.321 5.808c.948-.648 1.422-1.624 1.422-2.927s-.849-4.503-4.778-4.503c-3.625 0-5.917 2.068-6.798 4.373-1.848 4.836 1.946 8.987 5.608 8.987a9.516 9.516 0 0 0 5.738-1.824l-1.589-2.3a6.351 6.351 0 0 1-1.743.913 6.24 6.24 0 0 1-1.957.368c-2.608.065-3.003-2.111-3.003-2.111h3.211c1.645-.002 2.942-.327 3.89-.976zm-7.297-1.565s.695-2.751 3.17-2.751a2.465 2.465 0 0 1 1.457.368c.339.241.531.638.51 1.054 0 .884-.71 1.327-2.134 1.327l-3.003.002zM143.99 8.767c1.739 0 3.193.727 4.362 2.181l2.3-2.608a8.754 8.754 0 0 0-6.83-3.105 8.505 8.505 0 0 0-6.175 2.465 8.249 8.249 0 0 0-2.51 6.15c0 2.459.825 4.494 2.478 6.106 1.652 1.613 3.754 2.42 6.308 2.42 2.553 0 4.77-1.06 6.651-3.18l-2.37-2.432a5.46 5.46 0 0 1-4.457 2.163 4.616 4.616 0 0 1-3.392-1.4c-.933-.934-1.4-2.17-1.4-3.711 0-1.54.494-2.766 1.481-3.676a5.086 5.086 0 0 1 3.554-1.373zm15.154.449c-1.337 0-2.542.545-3.616 1.635V4.58h-3.557v17.594h3.557V15.31c0-.996.265-1.751.795-2.265a2.59 2.59 0 0 1 1.862-.77c1.441 0 2.162.98 2.162 2.94v6.971h3.557v-7.754c0-1.58-.459-2.841-1.376-3.784a4.516 4.516 0 0 0-3.384-1.432zm27.954 6.308a8.735 8.735 0 0 0-1.221-.627c-.34-.134-.914-.327-1.72-.581a10.54 10.54 0 0 1-1.729-.665.868.868 0 0 1-.522-.784c0-.6.55-.9 1.65-.9a5.824 5.824 0 0 1 3.307 1.138l1.327-2.37c-1.503-1.011-3.004-1.517-4.505-1.517s-2.729.372-3.684 1.114a3.497 3.497 0 0 0-1.422 2.881 2.943 2.943 0 0 0 1.446 2.668c.404.262.828.491 1.268.686.371.159.912.349 1.622.57a6.31 6.31 0 0 1 1.621.711c.371.252.557.529.557.83a.835.835 0 0 1-.403.724 1.91 1.91 0 0 1-1.08.27 6.814 6.814 0 0 1-4.244-1.54l-1.565 2.23a8.738 8.738 0 0 0 2.74 1.516 9.427 9.427 0 0 0 2.974.51c1.423 0 2.594-.379 3.513-1.137a3.714 3.714 0 0 0 1.387-3.024c.007-1.265-.432-2.166-1.317-2.703zm11.34 0a8.779 8.779 0 0 0-1.22-.627 30.063 30.063 0 0 0-1.72-.581 10.54 10.54 0 0 1-1.73-.665.868.868 0 0 1-.521-.784c0-.6.55-.9 1.649-.9a5.824 5.824 0 0 1 3.308 1.138l1.327-2.37c-1.503-1.011-3.005-1.517-4.506-1.517-1.5 0-2.725.372-3.673 1.114a3.497 3.497 0 0 0-1.421 2.881 2.943 2.943 0 0 0 1.446 2.668c.403.262.827.491 1.267.686.371.159.912.349 1.622.57a6.31 6.31 0 0 1 1.621.711c.372.252.557.529.557.83a.835.835 0 0 1-.402.724c-.326.195-.702.29-1.082.27a6.814 6.814 0 0 1-4.243-1.54l-1.565 2.23a8.738 8.738 0 0 0 2.74 1.516 9.427 9.427 0 0 0 2.974.51c1.423 0 2.594-.379 3.513-1.137a3.714 3.714 0 0 0 1.387-3.024c0-1.265-.442-2.166-1.327-2.703z"/><path fill="url(#a)" d="M52.895 11.724L46.35 9.73v.127a.903.903 0 0 1-.54.889l-4.216 1.835 3.416 1.038-15.768 6.862a5.71 5.71 0 0 1-4.557 0L8.92 13.624l3.419-1.04-4.23-1.833a.903.903 0 0 1-.54-.889V9.73l-6.554 1.994c-.47.136-.799.56-.811 1.049v2.338c-.004.452.266.862.683 1.038l23.33 10.154c1.745.76 3.726.76 5.47 0l23.33-10.154c.417-.176.688-.586.684-1.038v-2.335a1.122 1.122 0 0 0-.805-1.052z" transform="translate(0 -.014)"/><path fill="url(#b)" d="M52.895 11.724L46.35 9.73v.127a.903.903 0 0 1-.54.889l-1.135.497 1.04.316a.914.914 0 0 1 .1 1.711l-16.58 7.22a5.71 5.71 0 0 1-4.558 0L8.095 13.27a.914.914 0 0 1 .1-1.71l1.043-.32-1.13-.489a.903.903 0 0 1-.54-.889V9.73l-6.552 1.994a1.143 1.143 0 0 0-.124 2.14l23.33 10.155c1.744.76 3.726.76 5.47 0l23.327-10.154a1.143 1.143 0 0 0-.124-2.14z" transform="translate(0 -.014)"/><path fill="url(#c)" d="M46.351 8.151a.903.903 0 0 0-.648-.832l-6.684-2.035a.668.668 0 0 1-.408.627l-4.016 1.751 3.419 1.04-9.692 4.214a3.427 3.427 0 0 1-2.733 0l-9.68-4.213 3.418-1.04-4.03-1.755a.668.668 0 0 1-.408-.624L8.21 7.316a.903.903 0 0 0-.641.835v1.711a.904.904 0 0 0 .54.89l16.57 7.21a5.708 5.708 0 0 0 4.557 0l16.568-7.208a.903.903 0 0 0 .54-.89l.008-1.713z" transform="translate(0 -.014)"/><path fill="url(#d)" d="M45.703 7.316l-6.684-2.035a.668.668 0 0 1-.408.627l-1.714.746 1.64.5a.686.686 0 0 1 .074 1.284l-10.29 4.478c-.87.38-1.86.38-2.732 0L15.297 8.438a.686.686 0 0 1 .073-1.284l1.64-.5-1.715-.746a.668.668 0 0 1-.409-.624L8.208 7.316a.919.919 0 0 0-.1 1.722l16.568 7.21a5.71 5.71 0 0 0 4.556 0L45.8 9.042a.919.919 0 0 0-.097-1.725z" transform="translate(0 -.014)"/><path fill="url(#e)" d="M39.022 4.135a.67.67 0 0 0-.481-.651L28.019.27a3.654 3.654 0 0 0-2.127 0L15.37 3.481a.67.67 0 0 0-.48.654v1.146a.668.668 0 0 0 .407.627l10.292 4.478c.872.38 1.863.38 2.735 0l10.292-4.478a.668.668 0 0 0 .408-.63l-.002-1.143zm-8.017.216l-2.68 1.165a3.427 3.427 0 0 1-2.733 0L22.91 4.35l3.035-.927a3.427 3.427 0 0 1 1.995 0l3.064.93z" transform="translate(0 -.014)"/><path fill="url(#f)" d="M25.892.27L15.37 3.481a.686.686 0 0 0-.073 1.284L25.59 9.243c.872.38 1.863.38 2.735 0l10.292-4.478a.686.686 0 0 0-.073-1.284L28.02.271a3.654 3.654 0 0 0-2.127 0zm-3.938 3.225l3.992-1.217a3.427 3.427 0 0 1 1.995 0l4.002 1.22a.23.23 0 0 1 .025.426l-3.657 1.59a3.427 3.427 0 0 1-2.733 0l-3.656-1.592a.23.23 0 0 1 .032-.427z" transform="translate(0 -.014)"/></g></svg>