<svg xmlns="http://www.w3.org/2000/svg" width="23" height="14" viewBox="0 0 23 14">
  <path fill="#FFF" fill-rule="evenodd" d="M17.0178438,0.359874326 C16.5494202,-0.119958109 15.790011,-0.119958109 15.3215874,0.359874326 C14.8531638,0.839624849 14.8531638,1.61761195 15.3215874,2.09744439 L18.9088901,5.7722007 L1.19944586,5.7722007 C0.537031891,5.7722007 0,6.32231245 0,7.00086006 C0,7.67940767 0.537031891,8.22951942 1.19944586,8.22951942 L18.893937,8.22951942 L15.3082336,11.9025556 C14.83981,12.382388 14.83981,13.1602932 15.3082336,13.6401257 C15.7766572,14.1199581 16.5360663,14.1199581 17.0044899,13.6401257 L22.5781549,7.93070946 C22.6021438,7.90974034 22.6260528,7.8886074 22.6486823,7.8654267 C23.1171059,7.38559426 23.1171059,6.60768907 22.6486823,6.12785663 L17.0178438,0.359874326 Z"/>
</svg>
