<svg xmlns="http://www.w3.org/2000/svg" width="200" height="27" viewBox="0 0 200 27">
  <defs>
    <linearGradient id="hc-logo-light-a" x1=".005%" x2="100.005%" y1="50.026%" y2="50.026%">
      <stop offset="14%" stop-color="#B2B2B2"/>
      <stop offset="86%" stop-color="#ECECEC"/>
    </linearGradient>
    <linearGradient id="hc-logo-light-b" x1="-.003%" x2="100.003%" y1="50.02%" y2="50.02%">
      <stop offset="14%" stop-color="#F5F5F5"/>
      <stop offset="85%" stop-color="#C7C7C6"/>
    </linearGradient>
    <linearGradient id="hc-logo-light-c" x1="-.022%" x2="100.007%" y1="49.994%" y2="49.994%">
      <stop offset="14%" stop-color="#009C96"/>
      <stop offset="85%" stop-color="#62C0BE"/>
    </linearGradient>
    <linearGradient id="hc-logo-light-d" x1="-.006%" x2="99.993%" y1="50.007%" y2="50.007%">
      <stop offset="15%" stop-color="#62C0BE"/>
      <stop offset="86%" stop-color="#009C96"/>
    </linearGradient>
    <linearGradient id="hc-logo-light-e" x1="10609%" x2="19538%" y1="5097%" y2="5097%">
      <stop offset="14%" stop-color="#B2B2B2"/>
      <stop offset="86%" stop-color="#ECECEC"/>
    </linearGradient>
    <linearGradient id="hc-logo-light-f" x1="10607%" x2="19539%" y1="4886%" y2="4886%">
      <stop offset="14%" stop-color="#F5F5F5"/>
      <stop offset="85%" stop-color="#C7C7C6"/>
    </linearGradient>
  </defs>
  <g fill="none" transform="translate(0 -.014)">
    <polygon fill="#FFF" points="72.281 12.551 65.689 12.551 65.689 5.627 61.992 5.627 61.992 22.2 65.689 22.2 65.689 15.681 72.281 15.681 72.281 22.2 75.981 22.2 75.981 5.627 72.281 5.627"/>
    <path fill="#FFF" d="M96.0135135 9.03243243C93.9520229 9.00234135 91.9365168 9.64256091 90.2702703 10.8567568L91.8594595 13.1567568C92.3895458 12.7635251 92.9776863 12.4553213 93.6027027 12.2432432 94.2310812 12.0167926 94.8917395 11.892691 95.5594595 11.8756757 98.1675676 11.8108108 98.5621622 13.9864865 98.5621622 13.9864865L95.3567568 13.9864865C93.7117117 13.9864865 92.4153153 14.3108108 91.4675676 14.9594595 90.5198198 15.6081081 90.0459459 16.5837838 90.0459459 17.8864865 90.0459459 19.1891892 90.8945946 22.3891892 94.8243243 22.3891892 98.4486486 22.3891892 100.740541 20.3216216 101.621622 18.0162162 103.467568 13.1810811 99.672973 9.03243243 96.0135135 9.03243243zM95.5945946 19.2756757C95.0828361 19.3115333 94.5726417 19.1868191 94.1351351 18.9189189 93.7965442 18.6774237 93.6040729 18.2802607 93.6243243 17.8648649 93.6243243 16.9801802 94.336036 16.5378378 95.7594595 16.5378378L98.7648649 16.5378378C98.7648649 16.5378378 98.0702703 19.2756757 95.5945946 19.2756757zM87.9351351 16.4621622C88.8828829 15.8135135 89.3567568 14.8378378 89.3567568 13.5351351 89.3567568 12.2324324 88.5081081 9.03243243 84.5783784 9.03243243 80.9540541 9.03243243 78.6621622 11.1 77.7810811 13.4054054 75.9324324 18.2405405 79.727027 22.3918919 83.3891892 22.3918919 85.4488385 22.4208084 87.4622656 21.7806467 89.127027 20.5675676L87.5378378 18.2675676C87.0077515 18.6607992 86.419611 18.9690031 85.7945946 19.1810811 85.1662161 19.4075317 84.5055578 19.5316333 83.8378378 19.5486486 81.2297297 19.6135135 80.8351351 17.4378378 80.8351351 17.4378378L84.0540541 17.4378378C85.6918919 17.436036 86.9855856 17.1108108 87.9351351 16.4621622zM80.6378378 14.8972973C80.6378378 14.8972973 81.3324324 12.1459459 83.8081081 12.1459459 84.3201125 12.1138873 84.8293615 12.2423805 85.2648649 12.5135135 85.6034558 12.7550088 85.7959271 13.1521718 85.7756757 13.5675676 85.7756757 14.4522523 85.063964 14.8945946 83.6405405 14.8945946L80.6378378 14.8972973z"/>
    <rect width="3.557" height="17.595" x="103.422" y="4.608" fill="#FFF"/>
    <path fill="#FFF" d="M114.651351 19.2837838C114.305255 19.2844691 113.976274 19.1333157 113.751351 18.8702703 113.482894 18.5488488 113.347522 18.13693 113.372973 17.7189189L113.372973 12.0054054 116.454054 12.0054054 116.454054 9.44324324 113.372973 9.44324324 113.372973 5.62702703 109.789189 5.62702703 109.789189 9.44324324 108.294595 9.44324324 108.294595 12.0027027 109.789189 12.0027027 109.789189 17.8837838C109.789189 19.2747748 110.211712 20.372973 111.056757 21.1783784 111.888951 21.9797389 113.007206 22.414778 114.162162 22.3864865 115.387387 22.3864865 116.553153 21.8810811 117.659459 20.8702703L116.332432 18.3783784C115.954923 18.9381154 115.326457 19.2765983 114.651351 19.2837838L114.651351 19.2837838zM129.52973 10.6540541C128.655163 9.72396503 127.427796 9.20748864 126.151351 9.23243243 124.814414 9.23243243 123.609009 9.77747748 122.535135 10.8675676L122.535135 4.59459459 118.978378 4.59459459 118.978378 22.1891892 122.535135 22.1891892 122.535135 15.3243243C122.535135 14.3279279 122.8 13.572973 123.32973 13.0594595 123.820964 12.5617709 124.492622 12.2839443 125.191892 12.2891892 126.633333 12.2891892 127.354054 13.2693694 127.354054 15.2297297L127.354054 22.2 130.910811 22.2 130.910811 14.4459459C130.907207 12.8657658 130.446847 11.6018018 129.52973 10.6540541zM175.851351 16.4621622C176.799099 15.8135135 177.272973 14.8378378 177.272973 13.5351351 177.272973 12.2324324 176.424324 9.03243243 172.494595 9.03243243 168.87027 9.03243243 166.578378 11.1 165.697297 13.4054054 163.848649 18.2405405 167.643243 22.3918919 171.305405 22.3918919 173.365055 22.4208084 175.378482 21.7806467 177.043243 20.5675676L175.454054 18.2675676C174.923968 18.6607992 174.335827 18.9690031 173.710811 19.1810811 173.082432 19.4075317 172.421774 19.5316333 171.754054 19.5486486 169.145946 19.6135135 168.751351 17.4378378 168.751351 17.4378378L171.962162 17.4378378C173.607207 17.436036 174.903604 17.1108108 175.851351 16.4621622zM168.554054 14.8972973C168.554054 14.8972973 169.248649 12.1459459 171.724324 12.1459459 172.236329 12.1138873 172.745578 12.2423805 173.181081 12.5135135 173.519672 12.7550088 173.712143 13.1521718 173.691892 13.5675676 173.691892 14.4522523 172.98018 14.8945946 171.556757 14.8945946L168.554054 14.8972973zM143.989189 8.78108108C145.727928 8.78108108 147.181982 9.50810811 148.351351 10.9621622L150.651351 8.35405405C148.956204 6.34637841 146.448881 5.20632532 143.821622 5.24864865 141.513877 5.19821737 139.284747 6.0879186 137.645946 7.71351351 135.983713 9.32133889 135.072768 11.5531058 135.135135 13.8648649 135.135135 16.3225225 135.961261 18.3576577 137.613514 19.9702703 139.265766 21.5828829 141.368468 22.3891892 143.921622 22.3891892 146.474775 22.3891892 148.691892 21.3297297 150.572973 19.2108108L148.202703 16.7783784C147.148388 18.1703685 145.491825 18.9740377 143.745946 18.9405405 142.470439 18.9625979 141.242669 18.455837 140.354054 17.5405405 139.420721 16.6072072 138.954054 15.3702703 138.954054 13.8297297 138.954054 12.2891892 139.447748 11.063964 140.435135 10.1540541 141.397202 9.25322962 142.671368 8.76100419 143.989189 8.78108108zM159.143243 9.22972973C157.806306 9.22972973 156.600901 9.77477477 155.527027 10.8648649L155.527027 4.59459459 151.97027 4.59459459 151.97027 22.1891892 155.527027 22.1891892 155.527027 15.3243243C155.527027 14.3279279 155.791892 13.572973 156.321622 13.0594595 156.812856 12.5617709 157.484514 12.2839443 158.183784 12.2891892 159.625225 12.2891892 160.345946 13.2693694 160.345946 15.2297297L160.345946 22.2 163.902703 22.2 163.902703 14.4459459C163.902703 12.8657658 163.444144 11.6045045 162.527027 10.6621622 161.653102 9.72667372 160.423213 9.20603398 159.143243 9.22972973zM187.097297 15.5378378C186.707285 15.2969009 186.2988 15.0872361 185.875676 14.9108108 185.535135 14.7774775 184.962162 14.5837838 184.156757 14.3297297 183.561779 14.1593195 182.982966 13.9368383 182.427027 13.6648649 182.114184 13.5288729 181.910069 13.2221714 181.905405 12.8810811 181.905405 12.2810811 182.454955 11.9810811 183.554054 11.9810811 184.747301 12.0124118 185.902108 12.4096128 186.862162 13.1189189L188.189189 10.7486486C186.686486 9.73783784 185.184685 9.23243243 183.683784 9.23243243 182.182883 9.23243243 180.954955 9.6036036 180 10.3459459 179.086956 11.0189463 178.557005 12.0929537 178.578378 13.227027 178.529561 14.3152854 179.085822 15.3415095 180.024324 15.8945946 180.42783 16.1569174 180.851709 16.3864811 181.291892 16.5810811 181.663063 16.7396396 182.203604 16.9297297 182.913514 17.1513514 183.484771 17.310907 184.030683 17.5501984 184.535135 17.8621622 184.906306 18.1144144 185.091892 18.390991 185.091892 18.6918919 185.095373 18.9876044 184.942202 19.2631063 184.689189 19.4162162 184.363497 19.6112606 183.987269 19.7053174 183.608108 19.6864865 182.059731 19.6700592 180.563133 19.1267081 179.364865 18.1459459L177.8 20.3756757C178.614739 21.0420132 179.543164 21.5556685 180.540541 21.8918919 181.497688 22.2206389 182.501528 22.3931168 183.513514 22.4027027 184.936937 22.4027027 186.108108 22.0234234 187.027027 21.2648649 187.940187 20.5317553 188.454052 19.4108688 188.413514 18.2405405 188.420721 16.9756757 187.981982 16.0747748 187.097297 15.5378378zM198.437838 15.5378378C198.047825 15.2969009 197.639341 15.0872361 197.216216 14.9108108 196.875676 14.7774775 196.302703 14.5837838 195.497297 14.3297297 194.90232 14.1593195 194.323507 13.9368383 193.767568 13.6648649 193.454725 13.5288729 193.25061 13.2221714 193.245946 12.8810811 193.245946 12.2810811 193.795495 11.9810811 194.894595 11.9810811 196.087841 12.0124118 197.242649 12.4096128 198.202703 13.1189189L199.52973 10.7486486C198.027027 9.73783784 196.525225 9.23243243 195.024324 9.23243243 193.523423 9.23243243 192.299099 9.6036036 191.351351 10.3459459 190.438307 11.0189463 189.908356 12.0929537 189.92973 13.227027 189.880912 14.3152854 190.437174 15.3415095 191.375676 15.8945946 191.779181 16.1569174 192.203061 16.3864811 192.643243 16.5810811 193.014414 16.7396396 193.554955 16.9297297 194.264865 17.1513514 194.836122 17.310907 195.382034 17.5501984 195.886486 17.8621622 196.257658 18.1144144 196.443243 18.390991 196.443243 18.6918919 196.446724 18.9876044 196.293553 19.2631063 196.040541 19.4162162 195.714848 19.6112606 195.338621 19.7053174 194.959459 19.6864865 193.411083 19.6700592 191.914484 19.1267081 190.716216 18.1459459L189.151351 20.3756757C189.966091 21.0420132 190.894516 21.5556685 191.891892 21.8918919 192.84904 22.2206389 193.852879 22.3931168 194.864865 22.4027027 196.288288 22.4027027 197.459459 22.0234234 198.378378 21.2648649 199.291539 20.5317553 199.805404 19.4108688 199.764865 18.2405405 199.764865 16.9756757 199.322523 16.0747748 198.437838 15.5378378z"/>
    <path fill="url(#hc-logo-light-a)" d="M52.8945946,11.7243243 L46.3513514,9.72972973 L46.3513514,9.85675676 C46.3773216,10.2376343 46.1608875,10.5936684 45.8108108,10.7459459 L41.5945946,12.5810811 L45.0108108,13.6189189 L29.2432432,20.4810811 C27.7901144,21.1133147 26.1396153,21.1133147 24.6864865,20.4810811 L8.91891892,13.6243243 L12.3378378,12.5837838 L8.10810811,10.7513514 C7.75803146,10.5990738 7.54159735,10.2430397 7.56756757,9.86216216 L7.56756757,9.72972973 L1.01351351,11.7243243 C0.543507737,11.8596962 0.215417815,12.2840258 0.202702703,12.772973 L0.202702703,15.1108108 C0.19914475,15.5633916 0.469229944,15.9733233 0.886486486,16.1486486 L24.2162162,26.3027027 C25.9605513,27.0622064 27.9421514,27.0622064 29.6864865,26.3027027 L53.0162162,16.1486486 C53.4334728,15.9733233 53.703558,15.5633916 53.7,15.1108108 L53.7,12.7756757 C53.6891738,12.2872113 53.3633951,11.8619498 52.8945946,11.7243243 Z"/>
    <path fill="url(#hc-logo-light-b)" d="M52.8945946,11.7243243 L46.3513514,9.72972973 L46.3513514,9.85675676 C46.3773216,10.2376343 46.1608875,10.5936684 45.8108108,10.7459459 L44.6756757,11.2432432 L45.7162162,11.5594595 C46.0820119,11.6708636 46.3397162,11.9983063 46.3620291,12.3800385 C46.3843421,12.7617707 46.1665416,13.1170076 45.8162162,13.2702703 L29.2351351,20.4891892 C27.7820063,21.1214228 26.1315072,21.1214228 24.6783784,20.4891892 L8.09459459,13.2702703 C7.74426917,13.1170076 7.52646875,12.7617707 7.54878169,12.3800385 C7.57109463,11.9983063 7.82879892,11.6708636 8.19459459,11.5594595 L9.23783784,11.2405405 L8.10810811,10.7513514 C7.75803146,10.5990738 7.54159735,10.2430397 7.56756757,9.86216216 L7.56756757,9.72972973 L1.01621622,11.7243243 C0.558857029,11.8641463 0.236864301,12.2738789 0.209133612,12.751329 C0.181402923,13.2287791 0.453795365,13.6730341 0.891891892,13.8648649 L24.2216216,24.0189189 C25.9659567,24.7784226 27.9475568,24.7784226 29.6918919,24.0189189 L53.0189189,13.8648649 C53.4570154,13.6730341 53.7294079,13.2287791 53.7016772,12.751329 C53.6739465,12.2738789 53.3519538,11.8641463 52.8945946,11.7243243 Z"/>
    <path fill="url(#hc-logo-light-c)" d="M46.3513514,8.15135135 C46.3367352,7.763223 46.0754873,7.42795496 45.7027027,7.31891892 L39.0189189,5.28378378 C39.0237816,5.55654715 38.8621876,5.80482401 38.6108108,5.91081081 L34.5945946,7.66216216 L38.0135135,8.7027027 L28.3216216,12.9162162 C27.4501969,13.2950211 26.4606139,13.2950211 25.5891892,12.9162162 L15.9081081,8.7027027 L19.327027,7.66216216 L15.2972973,5.90810811 C15.0468452,5.80249082 14.8854374,5.55556898 14.8891892,5.28378378 L8.20810811,7.31621622 C7.83760848,7.4284477 7.57991848,7.76442327 7.56756757,8.15135135 L7.56756757,9.86216216 C7.54159735,10.2430397 7.75803146,10.5990738 8.10810811,10.7513514 L24.6783784,17.9621622 C26.1314392,18.5947223 27.7820743,18.5947223 29.2351351,17.9621622 L45.8027027,10.7540541 C46.1527793,10.6017765 46.3692135,10.2457424 46.3432432,9.86486486 L46.3513514,8.15135135 Z"/>
    <path fill="url(#hc-logo-light-d)" d="M45.7027027,7.31621622 L39.0189189,5.28108108 C39.0237816,5.55384445 38.8621876,5.80212131 38.6108108,5.90810811 L36.8972973,6.65405405 L38.5378378,7.15405405 C38.8112497,7.23903901 39.0032045,7.48478996 39.0194531,7.77064389 C39.0357016,8.05649782 38.8728312,8.32241779 38.6108108,8.43783784 L28.3216216,12.9162162 C27.4502647,13.2953471 26.4605461,13.2953471 25.5891892,12.9162162 L15.2972973,8.43783784 C15.0352769,8.32241779 14.8724065,8.05649782 14.888655,7.77064389 C14.9049036,7.48478996 15.0968584,7.23903901 15.3702703,7.15405405 L17.0108108,6.65405405 L15.2945946,5.90810811 C15.0441425,5.80249082 14.8827347,5.55556898 14.8864865,5.28378378 L8.20810811,7.31621622 C7.83974416,7.42813724 7.58019932,7.75781911 7.55787482,8.14216261 C7.53555031,8.52650612 7.7551795,8.8840207 8.10810811,9.03783784 L24.6756757,16.2486486 C26.1288045,16.8808823 27.7793036,16.8808823 29.2324324,16.2486486 L45.8,9.04054054 C46.1550419,8.88819566 46.3768753,8.53004354 46.3551098,8.1443105 C46.3333443,7.75857747 46.0726289,7.42765381 45.7027027,7.31621622 Z"/>
    <path fill="url(#hc-logo-light-e)" d="M39.0216216,4.13513514 C39.0253507,3.83474084 38.8287494,3.56855588 38.5405405,3.48378378 L28.0189189,0.27027027 C27.3255968,0.0593473243 26.585214,0.0593473243 25.8918919,0.27027027 L15.3702703,3.48108108 C15.0810836,3.56612184 14.8842372,3.83374445 14.8891892,4.13513514 L14.8891892,5.28108108 C14.8843265,5.55384445 15.0459205,5.80212131 15.2972973,5.90810811 L25.5891892,10.3864865 C26.4613908,10.766075 27.4521228,10.766075 28.3243243,10.3864865 L38.6162162,5.90810811 C38.8685227,5.80175504 39.0303042,5.55211868 39.0243243,5.27837838 L39.0216216,4.13513514 Z M31.0054054,4.35135135 L28.3243243,5.51621622 C27.4528996,5.89502105 26.4633166,5.89502105 25.5918919,5.51621622 L22.9108108,4.34864865 L25.9459459,3.42162162 C26.596105,3.22386011 27.2903815,3.22386011 27.9405405,3.42162162 L31.0054054,4.35135135 Z"/>
    <path fill="url(#hc-logo-light-f)" d="M25.8918919,0.27027027 L15.3702703,3.48108108 C15.0968584,3.56606604 14.9049036,3.81181699 14.888655,4.09767092 C14.8724065,4.38352485 15.0352769,4.64944481 15.2972973,4.76486486 L25.5891892,9.24324324 C26.4613908,9.62283178 27.4521228,9.62283178 28.3243243,9.24324324 L38.6162162,4.76486486 C38.8782366,4.64944481 39.041107,4.38352485 39.0248585,4.09767092 C39.0086099,3.81181699 38.8166551,3.56606604 38.5432432,3.48108108 L28.0189189,0.27027027 C27.3255968,0.0593473243 26.585214,0.0593473243 25.8918919,0.27027027 Z M21.9540541,3.49459459 L25.9459459,2.27837838 C26.596105,2.08061687 27.2903815,2.08061687 27.9405405,2.27837838 L31.9432432,3.4972973 C32.033029,3.52675037 32.0956217,3.6081774 32.1009956,3.7025177 C32.1063694,3.796858 32.053428,3.88486609 31.9675676,3.92432432 L28.3108108,5.51351351 C27.4393861,5.89231835 26.4498031,5.89231835 25.5783784,5.51351351 L21.9216216,3.92162162 C21.8361473,3.88070494 21.7845675,3.79150332 21.791744,3.69701237 C21.7989205,3.60252143 21.8633806,3.52213296 21.9540541,3.49459459 L21.9540541,3.49459459 Z"/>
  </g>
</svg>
